Coordinates
version=1
nRows=12
nColumns=34
inDegrees=no

Units are S.I. units (second, meters, Newtons, ...)
If the header above contains a line with 'inDegrees', this indicates whether rotational values are in degrees (yes) or radians (no).

endheader
time	pelvis_tilt	pelvis_list	pelvis_rotation	pelvis_tx	pelvis_ty	pelvis_tz	hip_flexion_r	hip_adduction_r	hip_rotation_r	knee_angle_r	ankle_angle_r	subtalar_angle_r	mtp_angle_r	hip_flexion_l	hip_adduction_l	hip_rotation_l	knee_angle_l	ankle_angle_l	subtalar_angle_l	mtp_angle_l	lumbar_extension	lumbar_bending	lumbar_rotation	arm_flex_r	arm_add_r	arm_rot_r	elbow_flex_r	pro_sup_r	arm_flex_l	arm_add_l	arm_rot_l	elbow_flex_l	pro_sup_l
1.12	-0.0242276	0.0577737	-0.0236362	1.11114	0.941707	-0.226745	0.500155	-0.0860091	-0.292435	0.185792	0.17369	0.277952	-0.0215477	-0.125119	0.0302009	-0.402928	0.251696	0.429897	0.536513	-0.0215551	-0.184235	-0.179513	-0.00993298	-0.0343968	-0.248237	0.305208	0.672289	1.74996	0.268744	-0.363319	0.195954	0.695533	1.69846
1.13	-0.024703	0.0521705	-0.0189128	1.12162	0.940159	-0.22729	0.497616	-0.0787334	-0.309759	0.157018	0.180848	0.308513	-0.0215434	-0.135185	0.0216348	-0.404678	0.256425	0.435247	0.547278	-0.0215508	-0.184137	-0.163494	-0.0159472	-0.0347427	-0.247633	0.294677	0.669762	1.74969	0.269956	-0.363516	0.197935	0.70518	1.70201
1.14	-0.0249972	0.0464096	-0.013231	1.13229	0.938606	-0.227918	0.495026	-0.0724611	-0.324756	0.135323	0.187037	0.329663	-0.0215391	-0.145046	0.0128192	-0.404056	0.261945	0.440015	0.555466	-0.0215465	-0.183985	-0.146845	-0.0226489	-0.0354834	-0.247214	0.283884	0.667695	1.74987	0.269971	-0.363307	0.199737	0.714694	1.70395
1.15	-0.0250508	0.0406591	-0.00669837	1.14317	0.937051	-0.228638	0.49261	-0.0676268	-0.337396	0.121506	0.192229	0.341575	-0.0215347	-0.154899	0.00409291	-0.400779	0.267935	0.443974	0.560549	-0.0215423	-0.18375	-0.12974	-0.0299456	-0.0366366	-0.247029	0.272928	0.666031	1.75045	0.268718	-0.362629	0.201372	0.724087	1.7044
1.16	-0.0248433	0.0350375	0.000495599	1.15425	0.935486	-0.229449	0.490596	-0.0644496	-0.34763	0.115952	0.196127	0.34479	-0.0215304	-0.164905	-0.00427727	-0.394745	0.274096	0.446922	0.56216	-0.021538	-0.183381	-0.112321	-0.0376792	-0.0381817	-0.247124	0.261954	0.664677	1.75134	0.266139	-0.361424	0.202804	0.733352	1.70363
1.17	-0.0243951	0.0295845	0.00808673	1.16555	0.933897	-0.230334	0.489187	-0.0628726	-0.355323	0.118555	0.198138	0.340017	-0.021526	-0.175167	-0.0121463	-0.386063	0.280188	0.448702	0.560155	-0.0215337	-0.18281	-0.0946674	-0.0456297	-0.0400527	-0.247543	0.251143	0.663509	1.75242	0.262204	-0.359644	0.20395	0.742459	1.70208
1.18	-0.0237517	0.0242266	0.0157524	1.17704	0.932308	-0.231256	0.488549	-0.062552	-0.360225	0.128729	0.197445	0.327975	-0.0215217	-0.18572	-0.0195183	-0.375049	0.286071	0.449213	0.554622	-0.0215294	-0.181983	-0.0767838	-0.0535272	-0.0421375	-0.248323	0.24071	0.66238	1.75351	0.256925	-0.357241	0.204689	0.751347	1.70022
1.19	-0.0229645	0.0188012	0.0231427	1.18872	0.930724	-0.232175	0.488781	-0.0628871	-0.362008	0.145483	0.193167	0.30931	-0.0215174	-0.196544	-0.0265549	-0.362189	0.29171	0.448403	0.545862	-0.0215252	-0.180876	-0.0585784	-0.0610705	-0.0442818	-0.249495	0.230875	0.661128	1.7544	0.250354	-0.354173	0.204874	0.759924	1.69857
1.2	-0.0220698	0.0130683	0.0299151	1.20056	0.929154	-0.233046	0.489902	-0.0631032	-0.360339	0.167556	0.184585	0.284594	-0.021513	-0.207578	-0.0335491	-0.348076	0.297189	0.446249	0.534319	-0.0215209	-0.17953	-0.0398738	-0.0679561	-0.0463001	-0.251082	0.221852	0.659591	1.75489	0.242578	-0.350397	0.20435	0.768078	1.69758
1.21	-0.0210746	0.00674282	0.0357713	1.21253	0.927616	-0.233827	0.491826	-0.0623636	-0.35499	0.193576	0.171357	0.254385	-0.0215087	-0.21874	-0.040877	-0.333323	0.302703	0.442729	0.5205	-0.0215166	-0.17806	-0.0204358	-0.0739136	-0.0479887	-0.253099	0.213819	0.657623	1.7548	0.233711	-0.345867	0.202972	0.775687	1.69761
1.22	-0.0199457	-0.000462816	0.0404916	1.22462	0.926135	-0.234479	0.494364	-0.0598927	-0.34593	0.222208	0.153688	0.219326	-0.0215044	-0.229923	-0.0489352	-0.31848	0.308553	0.437798	0.50488	-0.0215123	-0.176659	-1.58518e-05	-0.0787428	-0.0491406	-0.25555	0.206911	0.655102	1.754	0.223881	-0.340539	0.200617	0.782632	1.69891
1.23	-0.0186131	-0.00879097	0.0439637	1.23679	0.924743	-0.234979	0.497228	-0.0550847	-0.333401	0.252256	0.132395	0.180221	-0.0215	-0.240986	-0.0580782	-0.303957	0.315143	0.431358	0.487828	-0.021508	-0.175574	0.0216007	-0.0823442	-0.0495586	-0.258423	0.201203	0.651945	1.75241	0.213216	-0.334381	0.197206	0.788809	1.70157
